<svg xmlns="http://www.w3.org/2000/svg" width="600" height="100" viewBox="0 0 430 75" fill="none">
<g id="SvgjsG3278" featurekey="UxBHKT-0" transform="matrix(3.4256258956292527,0,0,3.4256258956292527,96.00000163346571,-6.526060417837584)" fill="#ffd460"><path d="M8.28 5.699999999999999 l2.44 0 l0 14.3 l-0.58 0 l0 -13 l-3.56 7.18 l-0.66 0 l-3.56 -7.18 l0 13 l-2.36 0 l0 -14.3 l2.36 0 l2.96 5.96 z M18.78 5.699999999999999 l0.64 0 l-2.7 5.42 l0 8.88 l-2.5 0 l0 -8.88 l-2.7 -5.42 l2.5 0 l2.38 4.78 z M25.18 6.279999999999999 c-1.88 0 -3.58 0.8 -4.78 2.08 l0 8.98 c1.2 1.28 2.9 2.08 4.78 2.08 l0 -8.6 l-0.58 0 l0 -0.58 l1.16 0 l0 9.76 l-0.58 0 c-3.94 0 -7.16 -3.2 -7.16 -7.14 c0 -3.96 3.22 -7.16 7.16 -7.16 l0.58 0 l0 0.58 l-0.58 0 z M33.72 5.699999999999999 c3.94 0 7.14 3.2 7.14 7.16 c0 3.94 -3.2 7.14 -7.14 7.14 c-3.96 0 -7.16 -3.2 -7.16 -7.14 c0 -3.96 3.2 -7.16 7.16 -7.16 z M33.72 19.42 c3.62 0 6.56 -2.94 6.56 -6.56 c0 -3.64 -2.94 -6.58 -6.56 -6.58 c-1.32 0 -2.56 0.4 -3.6 1.08 l0 10.98 c1.04 0.68 2.28 1.08 3.6 1.08 z M47.120000000000005 5.699999999999999 l0.58 0 l0 11.56 c0 1.66 -1.36 3.02 -3.02 3.02 s-3.02 -1.36 -3.02 -3.02 l0 -11.56 l2.36 0 l0 13.9 c0.22 0.06 0.44 0.1 0.66 0.1 c1.34 0 2.44 -1.1 2.44 -2.44 l0 -11.56 z M55.74 10.58 c0 1.86 -1.04 3.5 -2.54 4.32 l2.54 5.1 l-0.66 0 l-2.42 -4.86 c-0.52 0.2 -1.1 0.32 -1.7 0.32 l-0.1 0 l0 4.54 l-2.36 0 l0 -14.3 l2.08 0 l0.38 0 c2.64 0 4.78 2.18 4.78 4.88 z M50.86 14.879999999999999 l0.1 0 c2.32 0 4.2 -1.92 4.2 -4.3 c0 -2.36 -1.88 -4.3 -4.2 -4.3 l-0.1 0 l0 8.6 z M64.82 5.699999999999999 l2.44 0 l0 14.3 l-0.58 0 l0 -13 l-3.56 7.18 l-0.66 0 l-3.56 -7.18 l0 13 l-2.36 0 l0 -14.3 l2.36 0 l2.96 5.96 z M72.72 6.300000000000001 l-2.28 0 l0 3.94 l2.28 0 l0 0.6 l-2.28 0 l0 8.56 l2.28 0 l0 0.6 l-4.66 0 l0 -14.3 l4.66 0 l0 0.6 z M79.96 5.699999999999999 l0 0.58 l-2.04 0 l0 13.72 l-2.36 0 l0 -13.72 l-2.04 0 l0 -0.58 l6.44 0 z"></path></g> 
</svg>
